<?xml version="1.0" encoding="UTF-8" standalone="no"?>
<!-- Generated by Pixelmator Pro 3.7 -->

<svg
   width="1024"
   height="1024"
   viewBox="0 0 1024 1024"
   version="1.1"
   id="svg1"
   sodipodi:docname="AppIcon.svg"
   inkscape:version="1.4.2 (unknown)"
   xmlns:inkscape="http://www.inkscape.org/namespaces/inkscape"
   xmlns:sodipodi="http://sodipodi.sourceforge.net/DTD/sodipodi-0.dtd"
   xmlns="http://www.w3.org/2000/svg"
   xmlns:svg="http://www.w3.org/2000/svg">
  <defs
     id="defs1" />
  <sodipodi:namedview
     id="namedview1"
     pagecolor="#505050"
     bordercolor="#eeeeee"
     borderopacity="1"
     inkscape:showpageshadow="0"
     inkscape:pageopacity="0"
     inkscape:pagecheckerboard="0"
     inkscape:deskcolor="#505050"
     inkscape:zoom="0.52734375"
     inkscape:cx="512"
     inkscape:cy="512"
     inkscape:window-width="1280"
     inkscape:window-height="723"
     inkscape:window-x="0"
     inkscape:window-y="0"
     inkscape:window-maximized="1"
     inkscape:current-layer="svg1" />
  <g
     id="Cup">
    <path
       id="KYA-Cup"
       fill="#000000"
       stroke="none"
       d="M 512.007446 254.355103 C 428.784943 254.355103 349.307678 267.153687 288.908569 292.195007 C 258.45639 304.820374 234.036942 319.847656 216.214615 338.610291 C 198.392288 357.372925 187.5 380.961548 187.5 405.712036 C 187.5 606.18457 331.896149 771.12146 512.007446 771.12146 C 602.847473 771.12146 684.590942 729.152222 743.317749 661.842529 C 753.325806 663.586304 763.662537 664.505005 774.231628 664.505005 C 859.494019 664.505005 931 604.413696 931 527.715393 C 931 470.827271 891.448425 422.966003 836.415649 402.148438 C 835.425781 378.704468 824.764343 356.46936 807.800293 338.610291 C 789.977966 319.847656 765.558472 304.820374 735.106323 292.195007 C 674.707214 267.153687 595.22998 254.355103 512.007446 254.355103 Z M 512.007446 306.484863 C 589.717712 306.484863 664.158325 319.211792 715.140259 340.348816 C 740.992737 351.067139 759.239075 363.180542 770.003723 374.513123 C 775.394958 380.188782 778.992554 385.394958 781.241638 390.485474 C 780.365601 391.164429 779.398621 391.897766 778.299133 392.712646 C 770.030151 398.841614 756.285339 407.573181 735.480469 416.542664 C 693.870728 434.481628 623.920715 453.427979 513.325989 453.427979 C 402.875732 453.427979 333.107147 433.604797 291.586334 414.83728 C 270.825928 405.453491 257.099976 396.313599 248.823685 389.882202 C 247.200653 388.620972 245.896561 387.558716 244.743408 386.598633 C 246.954926 382.733948 249.982208 378.754639 254.0112 374.513123 C 264.775818 363.180542 283.022217 351.067139 308.874664 340.348816 C 359.856567 319.211792 434.29718 306.484863 512.007446 306.484863 Z M 835.524719 434.258606 C 875.030151 452.652161 901.025391 488.010193 901.025391 527.715393 C 901.025391 585.557129 845.577209 634.530396 774.231628 634.530396 C 771.155396 634.530396 768.119141 634.405396 765.103821 634.217285 C 804.839355 578.451416 830.337036 509.405823 835.524719 434.258606 Z M 242.075836 447.914673 C 250.152023 452.625732 259.411041 457.500793 270.115906 462.339417 C 319.095184 484.47821 396.617493 505.557739 513.325989 505.557739 C 629.889893 505.557739 707.228271 485.489136 756.118591 464.411377 C 765.612671 460.318298 774.000183 456.193604 781.417236 452.175659 C 761.781372 605.031006 646.739136 718.991699 512.007446 718.991699 C 376.026855 718.991699 260.101715 602.908325 242.075836 447.914673 Z" />
  </g>
</svg>
